<svg xmlns="http://www.w3.org/2000/svg" width="87" height="24" viewBox="0 0 87 24" fill="none">
  <path d="M8.4 19.2C6.96 19.2 5.64 18.88 4.44 18.24C3.24 17.6 2.28 16.72 1.56 15.6C0.84 14.48 0.48 13.2 0.48 11.76C0.48 10.32 0.84 9.04 1.56 7.92C2.28 6.8 3.24 5.92 4.44 5.28C5.64 4.64 6.96 4.32 8.4 4.32C9.84 4.32 11.16 4.64 12.36 5.28C13.56 5.92 14.52 6.8 15.24 7.92C15.96 9.04 16.32 10.32 16.32 11.76C16.32 13.2 15.96 14.48 15.24 15.6C14.52 16.72 13.56 17.6 12.36 18.24C11.16 18.88 9.84 19.2 8.4 19.2ZM8.4 16.08C9.2 16.08 9.92 15.9 10.56 15.54C11.2 15.18 11.7 14.68 12.06 14.04C12.42 13.4 12.6 12.64 12.6 11.76C12.6 10.88 12.42 10.12 12.06 9.48C11.7 8.84 11.2 8.34 10.56 7.98C9.92 7.62 9.2 7.44 8.4 7.44C7.6 7.44 6.88 7.62 6.24 7.98C5.6 8.34 5.1 8.84 4.74 9.48C4.38 10.12 4.2 10.88 4.2 11.76C4.2 12.64 4.38 13.4 4.74 14.04C5.1 14.68 5.6 15.18 6.24 15.54C6.88 15.9 7.6 16.08 8.4 16.08Z" fill="#C1272D"/>
  <path d="M23.4723 19.2C22.1923 19.2 21.0723 18.88 20.1123 18.24C19.1523 17.6 18.3923 16.72 17.8323 15.6C17.2723 14.48 16.9923 13.2 16.9923 11.76C16.9923 10.32 17.2723 9.04 17.8323 7.92C18.3923 6.8 19.1523 5.92 20.1123 5.28C21.0723 4.64 22.1923 4.32 23.4723 4.32C24.3523 4.32 25.1523 4.48 25.8723 4.8C26.5923 5.12 27.1923 5.56 27.6723 6.12V0H31.3923V19.2H27.6723V17.52C27.2323 18.08 26.6523 18.52 25.9323 18.84C25.2123 19.08 24.3923 19.2 23.4723 19.2ZM24.3123 16.08C25.1123 16.08 25.8323 15.9 26.4723 15.54C27.1123 15.18 27.6123 14.68 27.9723 14.04C28.3323 13.4 28.5123 12.64 28.5123 11.76C28.5123 10.88 28.3323 10.12 27.9723 9.48C27.6123 8.84 27.1123 8.34 26.4723 7.98C25.8323 7.62 25.1123 7.44 24.3123 7.44C23.5123 7.44 22.7923 7.62 22.1523 7.98C21.5123 8.34 21.0123 8.84 20.6523 9.48C20.2923 10.12 20.1123 10.88 20.1123 11.76C20.1123 12.64 20.2923 13.4 20.6523 14.04C21.0123 14.68 21.5123 15.18 22.1523 15.54C22.7923 15.9 23.5123 16.08 24.3123 16.08Z" fill="#C1272D"/>
  <path d="M32.9989 19.2V4.32H36.7189V6C37.1589 5.44 37.7189 5 38.3989 4.68C39.0789 4.36 39.8389 4.2 40.6789 4.2C41.5589 4.2 42.3589 4.38 43.0789 4.74C43.7989 5.1 44.3989 5.62 44.8789 6.3C45.3589 6.98 45.6789 7.8 45.8389 8.76V19.2H42.1189V9.48C42.1189 8.68 41.8789 8.04 41.3989 7.56C40.9189 7.08 40.2789 6.84 39.4789 6.84C38.6789 6.84 38.0389 7.08 37.5589 7.56C37.0789 8.04 36.8389 8.68 36.8389 9.48V19.2H32.9989Z" fill="#C1272D"/>
  <path d="M47.5266 19.2V0H51.3666V6.24C51.8466 5.6 52.4466 5.1 53.1666 4.74C53.8866 4.38 54.6866 4.2 55.5666 4.2C56.8466 4.2 57.9666 4.52 58.9266 5.16C59.8866 5.8 60.6466 6.68 61.2066 7.8C61.7666 8.92 62.0466 10.2 62.0466 11.64C62.0466 13.08 61.7666 14.36 61.2066 15.48C60.6466 16.6 59.8866 17.48 58.9266 18.12C57.9666 18.76 56.8466 19.08 55.5666 19.08C54.6866 19.08 53.8866 18.92 53.1666 18.6C52.4466 18.28 51.8466 17.84 51.3666 17.28V19.2H47.5266ZM54.7266 16.08C55.5266 16.08 56.2466 15.9 56.8866 15.54C57.5266 15.18 58.0266 14.68 58.3866 14.04C58.7466 13.4 58.9266 12.64 58.9266 11.76C58.9266 10.88 58.7466 10.12 58.3866 9.48C58.0266 8.84 57.5266 8.34 56.8866 7.98C56.2466 7.62 55.5266 7.44 54.7266 7.44C53.9266 7.44 53.2066 7.62 52.5666 7.98C51.9266 8.34 51.4266 8.84 51.0666 9.48C50.7066 10.12 50.5266 10.88 50.5266 11.76C50.5266 12.64 50.7066 13.4 51.0666 14.04C51.4266 14.68 51.9266 15.18 52.5666 15.54C53.2066 15.9 53.9266 16.08 54.7266 16.08Z" fill="#C1272D"/>
  <path d="M73.572 19.2H69.852V17.4C69.372 18.04 68.772 18.54 68.052 18.9C67.332 19.26 66.532 19.44 65.652 19.44C64.692 19.44 63.852 19.28 63.132 18.96C62.412 18.64 61.852 18.18 61.452 17.58C61.052 17 60.852 16.32 60.852 15.54C60.852 14.58 61.092 13.8 61.572 13.2C62.052 12.6 62.712 12.16 63.552 11.88C64.392 11.6 65.352 11.46 66.432 11.46H69.732V11.16C69.732 10.48 69.512 9.96 69.072 9.6C68.632 9.24 67.972 9.06 67.092 9.06C66.412 9.06 65.752 9.18 65.112 9.42C64.472 9.66 63.892 10 63.372 10.44L61.692 8.04C62.452 7.44 63.332 6.98 64.332 6.66C65.332 6.34 66.372 6.18 67.452 6.18C69.372 6.18 70.832 6.62 71.832 7.5C72.832 8.38 73.332 9.74 73.332 11.58V19.2H73.572ZM67.332 17.04C68.052 17.04 68.692 16.88 69.252 16.56C69.812 16.24 70.212 15.8 70.452 15.24V13.8H67.632C66.732 13.8 66.072 13.96 65.652 14.28C65.232 14.6 65.012 15.02 65.012 15.54C65.012 16.02 65.192 16.4 65.552 16.68C65.912 16.92 66.452 17.04 67.132 17.04H67.332Z" fill="#C1272D"/>
  <path d="M74.9977 19.2V6.42H78.8377V19.2H74.9977ZM76.9177 4.44C76.2377 4.44 75.6777 4.24 75.2377 3.84C74.7977 3.44 74.5777 2.96 74.5777 2.4C74.5777 1.84 74.7977 1.36 75.2377 0.96C75.6777 0.56 76.2377 0.36 76.9177 0.36C77.5977 0.36 78.1577 0.56 78.5977 0.96C79.0377 1.36 79.2577 1.84 79.2577 2.4C79.2577 2.96 79.0377 3.44 78.5977 3.84C78.1577 4.24 77.5977 4.44 76.9177 4.44Z" fill="#C1272D"/>
  <path d="M80.6514 19.2V6.42H84.4914V19.2H80.6514ZM82.5714 4.44C81.8914 4.44 81.3314 4.24 80.8914 3.84C80.4514 3.44 80.2314 2.96 80.2314 2.4C80.2314 1.84 80.4514 1.36 80.8914 0.96C81.3314 0.56 81.8914 0.36 82.5714 0.36C83.2514 0.36 83.8114 0.56 84.2514 0.96C84.6914 1.36 84.9114 1.84 84.9114 2.4C84.9114 2.96 84.6914 3.44 84.2514 3.84C83.8114 4.24 83.2514 4.44 82.5714 4.44Z" fill="#C1272D"/>
</svg> 